<svg width="235" height="55" viewBox="0 0 235 55" fill="none" xmlns="http://www.w3.org/2000/svg">
<path fill-rule="evenodd" clip-rule="evenodd" d="M234.568 20.1623C234.568 20.624 234.173 21 233.688 21H183.448C182.963 21 182.568 20.624 182.568 20.1623V12.8377C182.568 12.376 182.963 12 183.448 12H233.688C234.173 12 234.568 12.376 234.568 12.8377V20.1623Z" fill="#101725"/>
<path fill-rule="evenodd" clip-rule="evenodd" d="M178.035 3.2423C178.448 3.42127 178.661 3.87368 178.529 4.29625L177.567 7.37857C177.45 7.74646 177.104 8 176.712 8H168.464C167.863 8 167.43 7.43325 167.609 6.87148L169.537 0.622329C169.695 0.12021 170.265 -0.138307 170.759 0.0754667L178.041 3.2423H178.035Z" fill="#101725"/>
<path fill-rule="evenodd" clip-rule="evenodd" d="M175.73 12C176.192 12 176.568 12.3991 176.568 12.8892V54.1108C176.568 54.6009 176.192 55 175.73 55H168.406C167.944 55 167.568 54.6009 167.568 54.1108V12.8892C167.568 12.3991 167.944 12 168.406 12H175.73Z" fill="#101725"/>
<path fill-rule="evenodd" clip-rule="evenodd" d="M154.699 54.9949C155.399 54.9949 155.813 54.1866 155.409 53.5955L127.268 12.5406C127.036 12.2021 126.656 12 126.252 12H118.436C117.958 12 117.568 12.3991 117.568 12.8892V54.1108C117.568 54.6009 117.958 55 118.436 55H126.025C126.503 55 126.893 54.6009 126.893 54.1108V29.5769C126.893 29.2637 127.287 29.1374 127.46 29.395L144.61 54.616C144.773 54.8535 145.039 54.9949 145.32 54.9949H154.699Z" fill="#101725"/>
<path fill-rule="evenodd" clip-rule="evenodd" d="M162.637 12C163.15 12 163.568 12.4054 163.568 12.9032V50.0968C163.568 50.5946 163.15 51 162.637 51H160.21C159.914 51 159.634 50.8615 159.459 50.6254L153.748 42.9793C153.632 42.8254 153.568 42.6407 153.568 42.4508V12.9032C153.573 12.4054 153.991 12 154.504 12H162.637Z" fill="#101725"/>
<path fill-rule="evenodd" clip-rule="evenodd" d="M78.973 12C79.4484 12 79.8356 12.3993 79.8356 12.8896V33.0776C79.8356 39.6586 84.4717 45.0519 90.7055 45.5118C91.1858 45.5472 91.573 45.9465 91.5681 46.4419L91.4897 54.1349C91.4848 54.6202 91.0976 55.0195 90.6271 54.9993C79.1494 54.5494 70.5681 45.0721 70.5681 33.0776V12.8896C70.5681 12.3993 70.9553 12 71.4307 12H78.973Z" fill="#101725"/>
<path d="M102.479 45.445H97.4272C96.9537 45.445 96.5681 45.8442 96.5681 46.3343V54.1107C96.5681 54.6008 96.9537 55 97.4272 55H111.709C112.183 55 112.568 54.6008 112.568 54.1107V12.8893C112.568 12.3992 112.183 12 111.709 12H104.197C103.724 12 103.338 12.3992 103.338 12.8893V44.5557C103.338 45.0458 102.953 45.445 102.479 45.445Z" fill="#101725"/>
<path d="M55.3538 50.4225H53.813L47.7709 42.7036V50.4225H46.0035V39.6976H47.5443L53.5713 47.3863V39.6976H55.3538V50.4225Z" fill="#101725"/>
<path d="M43.4104 49.063C42.4436 50.1052 40.7821 50.6037 39.1356 50.6037C35.7671 50.6037 33.3351 48.1868 33.3351 45.06C33.3351 41.9634 35.7218 39.5164 38.9543 39.5164C40.7065 39.5164 42.1113 40.1055 43.1083 41.1326L41.8999 42.3864C41.205 41.6915 40.2534 41.2233 38.9543 41.2233C36.7036 41.2233 35.1175 42.9302 35.1175 45.06C35.1175 47.2352 36.6734 48.8968 39.1205 48.8968C40.0872 48.8968 41.0842 48.7004 41.6884 48.202V45.8153H38.9996V44.1537H43.4104V49.063Z" fill="#101725"/>
<path d="M29.1658 50.4225V39.6976H30.9331V50.4225H29.1658Z" fill="#101725"/>
<path d="M19.3995 48.6702L20.7892 47.5675C21.348 48.4285 22.2393 48.9421 23.2815 48.9421C24.2936 48.9421 25.0187 48.4134 25.0187 47.6128C25.0187 46.8576 24.5202 46.3591 23.493 45.9815L22.3148 45.5585C20.623 44.9392 19.7922 44.0027 19.7922 42.5374C19.7922 40.6644 21.2725 39.5164 23.2664 39.5164C24.5957 39.5164 25.7286 40.0451 26.5141 40.9816L25.2906 42.1749C24.7619 41.5405 24.0972 41.178 23.2664 41.178C22.3601 41.178 21.5746 41.6462 21.5746 42.4166C21.5746 43.2021 22.0882 43.5495 23.206 43.9573L24.2936 44.3652C25.8646 44.9543 26.8162 45.9059 26.8162 47.5071C26.8011 49.3802 25.3359 50.6037 23.2362 50.6037C21.4991 50.6037 20.049 49.8182 19.3995 48.6702Z" fill="#101725"/>
<path d="M11.3102 50.4225V39.6976H17.7602V41.3894H13.0775V44.1386H16.8539V45.8304H13.0775V48.7307H17.7602V50.4225H11.3102Z" fill="#101725"/>
<path d="M0 50.4225V39.6976H3.29297C6.48021 39.6976 8.91217 42.0239 8.91217 45.06C8.91217 48.0962 6.48021 50.4225 3.29297 50.4225H0ZM1.76733 48.776H3.29297C5.58899 48.776 7.11463 47.1597 7.11463 45.06C7.11463 42.9604 5.58899 41.3441 3.29297 41.3441H1.76733V48.776Z" fill="#101725"/>
<path d="M43.5979 29.7259C43.5979 26.6293 46.0601 24.1822 49.1416 24.1822C51.2412 24.1822 53.0237 25.2547 53.9753 26.9012L52.4497 27.7773C51.7548 26.6293 50.6219 25.8891 49.1416 25.8891C47.0117 25.8891 45.3803 27.5961 45.3803 29.7259C45.3803 31.8558 47.0117 33.5627 49.1416 33.5627C50.6219 33.5627 51.7548 32.8225 52.4497 31.6745L53.9753 32.5506C53.0237 34.1971 51.2412 35.2696 49.1416 35.2696C46.0601 35.2696 43.5979 32.8225 43.5979 29.7259Z" fill="#101725"/>
<path d="M39.4286 35.0882V24.3634H41.1959V35.0882H39.4286Z" fill="#101725"/>
<path d="M30.6852 35.0882V24.3634H32.4525V33.3964H37.3617V35.0882H30.6852Z" fill="#101725"/>
<path d="M20.7026 35.0882V24.3634H24.4034C26.3218 24.3634 27.6058 25.7229 27.6058 27.324C27.6058 28.2757 27.1979 28.9554 26.6088 29.3935C27.5907 29.8013 28.3308 30.617 28.3308 31.9463C28.3308 33.7287 26.9109 35.0882 24.8717 35.0882H20.7026ZM22.47 28.8799H24.3128C25.2796 28.8799 25.8687 28.2455 25.8687 27.4298C25.8687 26.6443 25.2796 25.9797 24.3128 25.9797H22.47V28.8799ZM22.47 33.4719H24.8264C25.9593 33.4719 26.6088 32.8224 26.6088 31.9312C26.6088 31.0551 25.9744 30.3904 24.8264 30.3904H22.47V33.4719Z" fill="#101725"/>
<path d="M17.7472 30.8889C17.7472 33.5626 15.9799 35.2695 13.4875 35.2695C10.9649 35.2695 9.21265 33.5626 9.21265 30.8889V24.3634H10.98V30.9191C10.98 32.5958 11.9769 33.5626 13.4875 33.5626C14.9829 33.5626 15.9799 32.5958 15.9799 30.9191V24.3634H17.7472V30.8889Z" fill="#101725"/>
<path d="M3.41381 24.3634C5.6192 24.3634 7.12974 25.889 7.12974 27.8678C7.12974 29.8466 5.6192 31.3723 3.41381 31.3723H1.76733V35.0882H0V24.3634H3.41381ZM3.39871 29.7107C4.65246 29.7107 5.39262 28.9101 5.39262 27.8678C5.39262 26.8256 4.65246 26.025 3.39871 26.025H1.76733V29.7107H3.39871Z" fill="#101725"/>
<path fill-rule="evenodd" clip-rule="evenodd" d="M218.73 27C219.192 27 219.568 27.3898 219.568 27.8685V54.1315C219.568 54.6101 219.192 55 218.73 55H211.406C210.944 55 210.568 54.6101 210.568 54.1315V27.8685C210.568 27.3898 210.944 27 211.406 27H218.73Z" fill="#101725"/>
<path fill-rule="evenodd" clip-rule="evenodd" d="M205.637 27C206.15 27 206.568 27.3898 206.568 27.8685V54.1315C206.568 54.6101 206.15 55 205.637 55H197.499C196.986 55 196.568 54.6101 196.568 54.1315V27.8685C196.568 27.3898 196.986 27 197.499 27H205.637Z" fill="#101725"/>
</svg>
